<svg width="32" height="32" viewBox="0 0 32 32" fill="none" xmlns="http://www.w3.org/2000/svg">
<g id="Camera_light">
<path id="Rectangle 1" d="M4 13.1388C4 11.7735 5.10681 10.6666 6.47214 10.6666V10.6666C7.40851 10.6666 8.26452 10.1376 8.68328 9.30008L9.77778 7.11109C10.1032 6.46034 10.2658 6.13496 10.5096 5.89828C10.7181 5.69596 10.968 5.54146 11.2422 5.44553C11.5629 5.33331 11.9267 5.33331 12.6543 5.33331H19.3457C20.0733 5.33331 20.4371 5.33331 20.7578 5.44553C21.032 5.54146 21.2819 5.69596 21.4904 5.89828C21.7342 6.13496 21.8968 6.46034 22.2222 7.11109L23.3167 9.30008C23.7355 10.1376 24.5915 10.6666 25.5279 10.6666V10.6666C26.8932 10.6666 28 11.7735 28 13.1388V20.6666C28 23.4951 28 24.9093 27.1213 25.788C26.2426 26.6666 24.8284 26.6666 22 26.6666H10C7.17157 26.6666 5.75736 26.6666 4.87868 25.788C4 24.9093 4 23.4951 4 20.6666V13.1388Z" stroke="#222222"/>
<circle id="Ellipse 55" cx="16.0003" cy="17.3333" r="4.83333" stroke="#222222"/>
</g>
</svg>
