<svg width="28" height="28" viewBox="0 0 28 28" fill="none" xmlns="http://www.w3.org/2000/svg">
<g filter="url(#filter0_d_65_1560)">
<rect x="2" y="2" width="24" height="24" rx="4" fill="#FF5E5E"/>
<path d="M8.5 10H7.5C7.36739 10 7.24021 9.94735 7.14645 9.85358C7.05268 9.75981 7 9.63263 7 9.50002C7 9.36742 7.05268 9.24024 7.14645 9.14647C7.24021 9.0527 7.36739 9.00002 7.5 9.00002H11.5V7.49902C11.5 7.36642 11.5527 7.23924 11.6464 7.14547C11.7402 7.0517 11.8674 6.99902 12 6.99902H16C16.1326 6.99902 16.2598 7.0517 16.3536 7.14547C16.4473 7.23924 16.5 7.36642 16.5 7.49902V9.00002H20.5C20.6326 9.00002 20.7598 9.0527 20.8536 9.14647C20.9473 9.24024 21 9.36742 21 9.50002C21 9.63263 20.9473 9.75981 20.8536 9.85358C20.7598 9.94735 20.6326 10 20.5 10H19.5V20.5C19.5 20.6326 19.4473 20.7598 19.3536 20.8536C19.2598 20.9473 19.1326 21 19 21H9C8.86739 21 8.74021 20.9473 8.64645 20.8536C8.55268 20.7598 8.5 20.6326 8.5 20.5V10ZM15.5 9.00002V8.00002H12.5V9.00002H15.5ZM9.5 20H18.5V10H9.5V20ZM12.5 18C12.3674 18 12.2402 17.9473 12.1464 17.8536C12.0527 17.7598 12 17.6326 12 17.5V12.5C12 12.3674 12.0527 12.2402 12.1464 12.1465C12.2402 12.0527 12.3674 12 12.5 12C12.6326 12 12.7598 12.0527 12.8536 12.1465C12.9473 12.2402 13 12.3674 13 12.5V17.5C13 17.6326 12.9473 17.7598 12.8536 17.8536C12.7598 17.9473 12.6326 18 12.5 18ZM15.5 18C15.3674 18 15.2402 17.9473 15.1464 17.8536C15.0527 17.7598 15 17.6326 15 17.5V12.5C15 12.3674 15.0527 12.2402 15.1464 12.1465C15.2402 12.0527 15.3674 12 15.5 12C15.6326 12 15.7598 12.0527 15.8536 12.1465C15.9473 12.2402 16 12.3674 16 12.5V17.5C16 17.6326 15.9473 17.7598 15.8536 17.8536C15.7598 17.9473 15.6326 18 15.5 18Z" fill="white"/>
</g>
<defs>
<filter id="filter0_d_65_1560" x="0" y="0" width="28" height="28" filterUnits="userSpaceOnUse" color-interpolation-filters="sRGB">
<feFlood flood-opacity="0" result="BackgroundImageFix"/>
<feColorMatrix in="SourceAlpha" type="matrix" values="0 0 0 0 0 0 0 0 0 0 0 0 0 0 0 0 0 0 127 0" result="hardAlpha"/>
<feOffset/>
<feGaussianBlur stdDeviation="1"/>
<feColorMatrix type="matrix" values="0 0 0 0 0.0562384 0 0 0 0 0.121895 0 0 0 0 0.209437 0 0 0 0.12 0"/>
<feBlend mode="normal" in2="BackgroundImageFix" result="effect1_dropShadow_65_1560"/>
<feBlend mode="normal" in="SourceGraphic" in2="effect1_dropShadow_65_1560" result="shape"/>
</filter>
</defs>
</svg>
