<svg width="341" height="82" viewBox="0 0 341 82" fill="none" xmlns="http://www.w3.org/2000/svg">
<g clip-path="url(#clip0_58_447)">
<path d="M341 0.200928H0.201172V81.4975H341V0.200928Z" fill="white" fill-opacity="0.01"/>
<path d="M160.944 79.3872H8.24837C3.80402 79.3872 0.201172 75.7878 0.201172 71.348V58.2843H2.11238V0.301418H24.6445V42.3063H83.892V0.200928H106.223V42.3063H110.146V40.4975H161.547V42.3063H165.471V0.200928H185.387V42.3063H188.908V40.4975H239.102V42.3063H243.126V0.200928H263.948V42.3063H310.823V2.11024H340.899V70.777C340.899 75.2044 337.316 78.7985 332.884 78.8162L189.411 79.3872V81.4975H160.944V79.3872Z" fill="#B8C8B3" stroke="black"/>
<path d="M45.668 62.5049H19.7158V79.3872H45.668V62.5049Z" fill="white"/>
<path d="M45.668 62.5049H19.7158V79.3872H45.668V62.5049Z" stroke="black"/>
<path d="M52.9104 62.5049H45.668V79.3872H52.9104V62.5049Z" fill="white"/>
<path d="M52.9104 62.5049H45.668V79.3872H52.9104V62.5049Z" stroke="black"/>
<path d="M60.7562 62.5049H52.9102V79.3872H60.7562V62.5049Z" fill="white"/>
<path d="M60.7562 62.5049H52.9102V79.3872H60.7562V62.5049Z" stroke="black"/>
<path d="M85.0991 62.5049H60.7563V79.3872H85.0991V62.5049Z" fill="white"/>
<path d="M85.0991 62.5049H60.7563V79.3872H85.0991V62.5049Z" stroke="black"/>
<path d="M92.5428 64.5146H85.0991V79.3872H92.5428V64.5146Z" fill="white"/>
<path d="M92.5428 64.5146H85.0991V79.3872H92.5428V64.5146Z" stroke="black"/>
<path d="M106.626 64.5146H92.543V79.3872H106.626V64.5146Z" fill="white"/>
<path d="M106.626 64.5146H92.543V79.3872H106.626V64.5146Z" stroke="black"/>
<path d="M131.773 62.5049H106.625V79.3872H131.773V62.5049Z" fill="white"/>
<path d="M131.773 62.5049H106.625V79.3872H131.773V62.5049Z" stroke="black"/>
<path d="M161.145 62.5049H131.773V79.3872H161.145V62.5049Z" fill="white"/>
<path d="M161.145 62.5049H131.773V79.3872H161.145V62.5049Z" stroke="black"/>
<mask id="mask0_58_447" style="mask-type:luminance" maskUnits="userSpaceOnUse" x="160" y="62" width="8" height="20">
<path d="M167.784 62.5049H160.944V81.397H167.784V62.5049Z" fill="white"/>
</mask>
<g mask="url(#mask0_58_447)">
<path d="M167.784 62.5049H160.944V81.397H167.784V62.5049Z" fill="white"/>
<path d="M164.364 62.5049H160.944V70.3431H164.364V62.5049Z" stroke="black"/>
<path d="M164.364 70.343H160.944V76.5734H164.364V70.343Z" stroke="black"/>
</g>
<path d="M167.784 62.5049H160.944V81.397H167.784V62.5049Z" stroke="black"/>
<path d="M292.113 62.5049H322.491V79.1863H292.113V62.5049Z" fill="white"/>
<path d="M292.113 62.5049H322.491V79.1863H292.113V62.5049Z" stroke="black"/>
<path d="M322.491 79.1863H332.751C337.195 79.1863 340.799 75.5869 340.799 71.147V65.3186H322.491V79.1863Z" fill="white"/>
<path d="M322.491 79.1863H332.751C337.195 79.1863 340.799 75.5869 340.799 71.147V65.3186H322.491V79.1863Z" stroke="black"/>
<path d="M285.072 62.5049H292.113V79.1863H285.072V62.5049Z" fill="white"/>
<path d="M285.072 62.5049H292.113V79.1863H285.072V62.5049Z" stroke="black"/>
<path d="M262.942 62.5049H285.072V79.1863H262.942V62.5049Z" fill="white"/>
<path d="M262.942 62.5049H285.072V79.1863H262.942V62.5049Z" stroke="black"/>
<path d="M253.688 64.5146H262.942V79.1862H253.688V64.5146Z" fill="white"/>
<path d="M253.688 64.5146H262.942V79.1862H253.688V64.5146Z" stroke="black"/>
<path d="M242.02 64.5146H253.688V79.1862H242.02V64.5146Z" fill="white"/>
<path d="M242.02 64.5146H253.688V79.1862H242.02V64.5146Z" stroke="black"/>
<path d="M215.665 62.5049H242.02V79.1863H215.665V62.5049Z" fill="white"/>
<path d="M215.665 62.5049H242.02V79.1863H215.665V62.5049Z" stroke="black"/>
<path d="M189.713 62.5049H215.665V79.1863H189.713V62.5049Z" fill="white"/>
<path d="M189.713 62.5049H215.665V79.1863H189.713V62.5049Z" stroke="black"/>
<mask id="mask1_58_447" style="mask-type:luminance" maskUnits="userSpaceOnUse" x="183" y="62" width="7" height="20">
<path d="M183.074 62.5049H189.713V81.799H183.074V62.5049Z" fill="white"/>
</mask>
<g mask="url(#mask1_58_447)">
<path d="M183.074 62.5049H189.713V81.799H183.074V62.5049Z" fill="white"/>
<path d="M186.293 62.5049H189.713V70.3431H186.293V62.5049Z" stroke="black"/>
<path d="M186.293 70.343H189.713V76.5734H186.293V70.343Z" stroke="black"/>
</g>
<path d="M183.074 62.5049H189.713V81.799H183.074V62.5049Z" stroke="black"/>
<mask id="mask2_58_447" style="mask-type:luminance" maskUnits="userSpaceOnUse" x="15" y="46" width="10" height="13">
<path d="M24.745 46.4265H15.0884V58.6863H24.745V46.4265Z" fill="white"/>
</mask>
<g mask="url(#mask2_58_447)">
<path d="M24.745 46.4265H15.0884V58.6863H24.745V46.4265Z" fill="white"/>
<path d="M24.7452 53.2598H21.5264V58.6862H24.7452V53.2598Z" stroke="black"/>
<path d="M21.526 53.2598H18.3071V58.6862H21.526V53.2598Z" stroke="black"/>
<path d="M15.5913 51.853V56.777H18.3072" stroke="black"/>
</g>
<path d="M24.745 46.4265H15.0884V58.6863H24.745V46.4265Z" stroke="black"/>
<mask id="mask3_58_447" style="mask-type:luminance" maskUnits="userSpaceOnUse" x="84" y="46" width="11" height="13">
<path d="M84.8981 46.4265H94.5547V58.6863H84.8981V46.4265Z" fill="white"/>
</mask>
<g mask="url(#mask3_58_447)">
<path d="M84.8981 46.4265H94.5547V58.6863H84.8981V46.4265Z" fill="white"/>
<path d="M84.8978 53.2598H88.1167V58.6862H84.8978V53.2598Z" stroke="black"/>
<path d="M88.1171 53.2598H91.3359V58.6862H88.1171V53.2598Z" stroke="black"/>
<path d="M94.0519 51.853V56.777H91.3359" stroke="black"/>
</g>
<path d="M84.8981 46.4265H94.5547V58.6863H84.8981V46.4265Z" stroke="black"/>
<path d="M38.4254 46.4265H24.7451V58.6863H38.4254V46.4265Z" fill="white"/>
<path d="M38.4254 46.4265H24.7451V58.6863H38.4254V46.4265Z" stroke="black"/>
<path d="M71.2177 46.4265H84.8979V58.6863H71.2177V46.4265Z" fill="white"/>
<path d="M71.2177 46.4265H84.8979V58.6863H71.2177V46.4265Z" stroke="black"/>
<path d="M71.2176 46.4265H38.4253V58.6863H71.2176V46.4265Z" fill="white"/>
<path d="M71.2176 46.4265H38.4253V58.6863H71.2176V46.4265Z" stroke="black"/>
<path d="M83.8922 0.200928H106.223V35.9754H83.8922V0.200928Z" fill="white"/>
<path d="M83.8922 0.200928H106.223V35.9754H83.8922V0.200928Z" stroke="black"/>
<mask id="mask4_58_447" style="mask-type:luminance" maskUnits="userSpaceOnUse" x="2" y="0" width="23" height="39">
<path d="M2.01178 0.200928H24.7451V38.1862H2.01178V0.200928Z" fill="white"/>
</mask>
<g mask="url(#mask4_58_447)">
<path d="M2.01178 0.200928H24.7451V38.1862H2.01178V0.200928Z" fill="white"/>
<path d="M11.1654 0.301514H1.50879V11.1545H11.1654V0.301514Z" stroke="black"/>
<path d="M11.1654 11.1543H1.50879V21.4043H11.1654V11.1543Z" stroke="black"/>
</g>
<path d="M2.11238 0.301514H24.6445V38.0858H2.11238V0.301514Z" stroke="black"/>
<path d="M165.571 0.200928H185.488V36.9803H165.571V0.200928Z" fill="white"/>
<path d="M165.571 0.200928H185.488V36.9803H165.571V0.200928Z" stroke="black"/>
<path d="M243.026 0.200928H263.948V36.9803H243.026V0.200928Z" fill="white"/>
<path d="M243.026 0.200928H263.948V36.9803H243.026V0.200928Z" stroke="black"/>
<mask id="mask5_58_447" style="mask-type:luminance" maskUnits="userSpaceOnUse" x="4" y="64" width="16" height="16">
<path d="M19.7154 64.9167H4.62695V79.3873H19.7154V64.9167Z" fill="white"/>
</mask>
<g mask="url(#mask5_58_447)">
<path d="M14.686 69.7402H4.62695V73.9608H14.686V69.7402Z" fill="white"/>
<path d="M14.686 69.7402H4.62695V73.9608H14.686V69.7402Z" stroke="black"/>
<path d="M14.686 69.9412H19.7155M14.686 70.6446H19.7155M14.686 71.348H19.7155M14.686 72.0515H19.7155M14.686 72.8554H19.7155M14.686 73.5588H19.7155" stroke="black" stroke-width="0.2"/>
<path d="M8.44922 69.7403V64.9167M9.15335 69.7403V64.9167M9.85748 69.7403V64.9167M10.5616 69.7403V64.9167M11.3663 69.7403V64.9167M12.0705 69.7403V64.9167M12.674 69.7403V64.9167M13.3781 69.7403V64.9167M14.0823 69.7403V64.9167" stroke="black" stroke-width="0.2"/>
<path d="M8.44933 79.1864V73.9609M9.15346 79.1864V73.9609M9.85759 79.1864V73.9609M10.5617 79.1864V73.9609M11.3664 79.1864V73.9609M12.0706 79.1864V73.9609M12.6741 79.1864V73.9609M13.3782 79.1864V73.9609M14.0824 79.1864V73.9609M5.63281 79.1864V73.9609M6.33694 79.1864V73.9609M7.04107 79.1864V73.9609M7.7452 79.1864V73.9609" stroke="black" stroke-width="0.2"/>
</g>
<path d="M19.7154 64.9167H4.62695V75.3873C4.62695 77.5965 6.41781 79.3873 8.62695 79.3873H19.7154V64.9167Z" stroke="black"/>
<path d="M189.31 48.0344H182.671V58.6864H189.31V48.0344Z" fill="white"/>
<path d="M189.31 48.0344H182.671V58.6864H189.31V48.0344Z" stroke="black"/>
<path d="M197.358 48.0344H189.311V58.6864H197.358V48.0344Z" fill="white"/>
<path d="M197.358 48.0344H189.311V58.6864H197.358V48.0344Z" stroke="black"/>
<path d="M205.405 46.8284H197.357V58.6862H205.405V46.8284Z" fill="white"/>
<path d="M205.405 46.8284H197.357V58.6862H205.405V46.8284Z" stroke="black"/>
<path d="M234.375 46.8284H205.405V58.6862H234.375V46.8284Z" fill="white"/>
<path d="M234.375 46.8284H205.405V58.6862H234.375V46.8284Z" stroke="black"/>
<path d="M242.422 48.0344H234.375V58.6864H242.422V48.0344Z" fill="white"/>
<path d="M242.422 48.0344H234.375V58.6864H242.422V48.0344Z" stroke="black"/>
<path d="M250.268 49.8433H242.422V58.6864H250.268V49.8433Z" fill="white"/>
<path d="M250.268 49.8433H242.422V58.6864H250.268V49.8433Z" stroke="black"/>
<path d="M250.268 47.2305H242.422V49.8432H250.268V47.2305Z" fill="white"/>
<path d="M250.268 47.2305H242.422V49.8432H250.268V47.2305Z" stroke="black"/>
<mask id="mask6_58_447" style="mask-type:luminance" maskUnits="userSpaceOnUse" x="253" y="49" width="11" height="10">
<path d="M263.345 49.8433H253.688V58.6864H263.345V49.8433Z" fill="white"/>
</mask>
<g mask="url(#mask6_58_447)">
<path d="M263.345 49.8433H253.688V58.6864H263.345V49.8433Z" fill="white"/>
<path d="M263.345 53.26H260.126V58.6865H263.345V53.26Z" stroke="black"/>
<path d="M260.126 53.26H256.907V58.6865H260.126V53.26Z" stroke="black"/>
<path d="M254.191 51.853V56.777H256.907" stroke="black"/>
</g>
<path d="M263.345 49.8433H253.688V58.6864H263.345V49.8433Z" stroke="black"/>
<path d="M263.345 47.2305H253.688V49.8432H263.345V47.2305Z" fill="white"/>
<path d="M263.345 47.2305H253.688V49.8432H263.345V47.2305Z" stroke="black"/>
<path d="M275.617 48.0344H263.345V58.6864H275.617V48.0344Z" fill="white"/>
<path d="M275.617 48.0344H263.345V58.6864H275.617V48.0344Z" stroke="black"/>
<path d="M284.67 48.0344H275.617V58.6864H284.67V48.0344Z" fill="white"/>
<path d="M284.67 48.0344H275.617V58.6864H284.67V48.0344Z" stroke="black"/>
<path d="M306.598 48.0344H284.669V58.6864H306.598V48.0344Z" fill="white"/>
<path d="M306.598 48.0344H284.669V58.6864H306.598V48.0344Z" stroke="black"/>
<path d="M152.997 46.929H115.175V58.5858H152.997V46.929Z" fill="white"/>
<path d="M152.997 46.929H115.175V58.5858H152.997V46.929Z" stroke="black"/>
<path d="M153.198 48.1348H161.648V58.5857H153.198V48.1348Z" fill="white"/>
<path d="M153.198 48.1348H161.648V58.5857H153.198V48.1348Z" stroke="black"/>
<path d="M161.749 48.0344H166.778V58.6864H161.749V48.0344Z" fill="white"/>
<path d="M161.749 48.0344H166.778V58.6864H161.749V48.0344Z" stroke="black"/>
<path d="M106.726 46.929H114.974V58.5858H106.726V46.929Z" fill="white"/>
<path d="M106.726 46.929H114.974V58.5858H106.726V46.929Z" stroke="black"/>
<path d="M98.2765 49.1396H106.525V58.5857H98.2765V49.1396Z" fill="white"/>
<path d="M98.2765 49.1396H106.525V58.5857H98.2765V49.1396Z" stroke="black"/>
<path d="M172.613 48.0344H166.778V54.4658H172.613V48.0344Z" fill="white"/>
<path d="M172.613 48.0344H166.778V54.4658H172.613V48.0344Z" stroke="black"/>
<path d="M172.613 54.4656H166.778V58.6862H172.613V54.4656Z" fill="white"/>
<path d="M172.613 54.4656H166.778V58.6862H172.613V54.4656Z" stroke="black"/>
<mask id="mask7_58_447" style="mask-type:luminance" maskUnits="userSpaceOnUse" x="319" y="2" width="22" height="57">
<path d="M341 2.00977H319.272V58.0833H341V2.00977Z" fill="white"/>
</mask>
<g mask="url(#mask7_58_447)">
<path d="M341 2.00977H319.272V58.0833H341V2.00977Z" fill="white"/>
<mask id="mask8_58_447" style="mask-type:luminance" maskUnits="userSpaceOnUse" x="319" y="46" width="9" height="13">
<path d="M327.521 46.4265H319.272V58.0834H327.521V46.4265Z" fill="white"/>
</mask>
<g mask="url(#mask8_58_447)">
<path d="M327.521 46.4265H319.272V58.0834H327.521V46.4265Z" fill="white"/>
<path d="M322.491 46.4265H319.272V50.8481H322.491V46.4265Z" stroke="black"/>
<path d="M325.509 46.4265H322.491V50.8481H325.509V46.4265Z" stroke="black"/>
</g>
<path d="M327.521 46.4265H319.272V58.0834H327.521V46.4265Z" stroke="black"/>
<path d="M339.793 46.4265H331.544V58.0834H339.793V46.4265Z" fill="white"/>
<path d="M339.793 46.4265H331.544V58.0834H339.793V46.4265Z" stroke="black"/>
<path d="M341 2.00977H328.929V13.6666H341V2.00977Z" fill="white"/>
<path d="M341 2.00977H328.929V13.6666H341V2.00977Z" stroke="black"/>
</g>
<path d="M340.899 2.11035H319.373V57.9829H340.899V2.11035Z" stroke="black"/>
<path d="M180.056 63.3088H170.802V65.9216H180.056V63.3088Z" fill="white"/>
<path d="M180.056 63.3088H170.802V65.9216H180.056V63.3088Z" stroke="black"/>
<path d="M173.618 71.2476H177.239M173.618 71.951H177.239M173.618 72.6544H177.239M173.618 73.3579H177.239M173.618 74.1618H177.239M173.618 74.8652H177.239M173.618 75.5686H177.239M173.618 76.2721H177.239M173.618 77.076H177.239" stroke="black" stroke-width="0.2"/>
<path d="M173.618 77.4781V70.8457H172.914H172.059H171.506H171.204V71.8506V72.755V73.6594V74.6643V75.4683V76.2722V76.8751V77.4781H171.506H172.21H172.914H173.618Z" fill="white"/>
<path d="M167.784 70.8457H171.204M171.204 70.8457V71.8506M171.204 70.8457H171.506M173.618 70.8457V77.478M173.618 70.8457V65.9216M173.618 70.8457H172.914M173.618 77.478H172.914M173.618 77.478V81.4976M172.914 70.8457V65.9216M172.914 70.8457H172.059M172.914 77.478H172.21M172.914 77.478V81.4976M171.204 71.8506H167.784M171.204 71.8506V72.755M171.506 70.8457H172.059M171.506 70.8457V65.9216M171.204 72.755H167.784M171.204 72.755V73.6594M171.204 73.6594H167.784M171.204 73.6594V74.6643M171.204 74.6643H167.784M171.204 74.6643V75.4682M171.204 75.4682H167.784M171.204 75.4682V76.2721M171.204 76.2721H167.784M171.204 76.2721V76.8751M171.204 76.8751V77.478H171.506M171.204 76.8751H167.784M171.506 77.478V81.4976M171.506 77.478H172.21M172.21 77.478V81.4976M172.059 70.8457V65.9216" stroke="black" stroke-width="0.2"/>
<path d="M177.24 77.4781V70.8457H177.944H178.799H179.352H179.654V71.8506V72.755V73.6594V74.6643V75.4683V76.2722V76.8751V77.4781H179.352H178.648H177.944H177.24Z" fill="white"/>
<path d="M183.074 70.8457H179.654M179.654 70.8457V71.8506M179.654 70.8457H179.352M177.24 70.8457V77.478M177.24 70.8457V65.9216M177.24 70.8457H177.944M177.24 77.478H177.944M177.24 77.478V81.4976M177.944 70.8457V65.9216M177.944 70.8457H178.799M177.944 77.478H178.648M177.944 77.478V81.4976M179.654 71.8506H183.074M179.654 71.8506V72.755M179.352 70.8457H178.799M179.352 70.8457V65.9216M179.654 72.755H183.074M179.654 72.755V73.6594M179.654 73.6594H183.074M179.654 73.6594V74.6643M179.654 74.6643H183.074M179.654 74.6643V75.4682M179.654 75.4682H183.074M179.654 75.4682V76.2721M179.654 76.2721H183.074M179.654 76.2721V76.8751M179.654 76.8751V77.478H179.352M179.654 76.8751H183.074M179.352 77.478V81.4976M179.352 77.478H178.648M178.648 77.478V81.4976M178.799 70.8457V65.9216" stroke="black" stroke-width="0.2"/>
</g>
<defs>
<clipPath id="clip0_58_447">
<rect width="341" height="82" fill="white"/>
</clipPath>
</defs>
</svg>
