<svg width="141" height="588" viewBox="0 0 141 588" fill="none" xmlns="http://www.w3.org/2000/svg">
<g clip-path="url(#clip0_81_643)">
<path d="M140.654 588L140.654 0.346924L0.863907 0.346918L0.863881 588L140.654 588Z" fill="white" fill-opacity="0.01"/>
<path d="M4.49257 277.522L4.49258 14.223C4.49258 6.55946 10.6817 0.346918 18.3161 0.346918L40.7793 0.346919L40.7793 3.64249L140.482 3.6425L140.482 42.4956L68.2536 42.4956L68.2536 144.658L140.654 144.658L140.654 183.165L68.2536 183.165L68.2536 189.929L71.3639 189.929L71.3639 278.563L68.2536 278.563L68.2536 285.327L140.654 285.327L140.654 319.671L68.2536 319.671L68.2536 325.742L71.3639 325.742L71.3639 412.294L68.2536 412.294L68.2536 419.232L140.654 419.232L140.654 455.136L68.2536 455.136L68.2536 535.965L137.371 535.965L137.371 587.827L19.2979 587.827C11.6849 587.827 5.50478 581.648 5.47437 574.006L4.49257 326.609L0.863893 326.609L0.863895 277.522L4.49257 277.522Z" fill="#B8C8B3" stroke="black"/>
<path id="room1" class="room" d="M33.522 78.7468L33.522 33.9963L4.49257 33.9963L4.49257 78.7468L33.522 78.7468Z" fill="white"/>
<path d="M33.522 78.7468L33.522 33.9963L4.49257 33.9963L4.49257 78.7468L33.522 78.7468Z" stroke="black"/>
<path id="room2" class="room" d="M33.522 91.2353L33.522 78.7468L4.49257 78.7468L4.49257 91.2353L33.522 91.2353Z" fill="white"/>
<path d="M33.522 91.2353L33.522 78.7468L4.49257 78.7468L4.49257 91.2353L33.522 91.2353Z" stroke="black"/>
<path id="room3" class="room" d="M33.522 104.765L33.522 91.2354L4.49257 91.2354L4.49257 104.765L33.522 104.765Z" fill="white"/>
<path d="M33.522 104.765L33.522 91.2354L4.49257 91.2354L4.49257 104.765L33.522 104.765Z" stroke="black"/>
<path id="room4" class="room" d="M33.522 146.74L33.522 104.765L4.49257 104.765L4.49257 146.74L33.522 146.74Z" fill="white"/>
<path d="M33.522 146.74L33.522 104.765L4.49257 104.765L4.49257 146.74L33.522 146.74Z" stroke="black"/>
<path id="room5" class="room" d="M30.0664 159.575L30.0664 146.74L4.49288 146.74L4.49288 159.575L30.0664 159.575Z" fill="white"/>
<path d="M30.0664 159.575L30.0664 146.74L4.49288 146.74L4.49288 159.575L30.0664 159.575Z" stroke="black"/>
<path id="room6" class="room" d="M30.0664 183.858L30.0664 159.575L4.49288 159.575L4.49288 183.858L30.0664 183.858Z" fill="white"/>
<path d="M30.0664 183.858L30.0664 159.575L4.49288 159.575L4.49288 183.858L30.0664 183.858Z" stroke="black"/>
<path id="room7" class="room" d="M33.522 227.221L33.522 183.858L4.49257 183.858L4.49257 227.221L33.522 227.221Z" fill="white"/>
<path d="M33.522 227.221L33.522 183.858L4.49257 183.858L4.49257 227.221L33.522 227.221Z" stroke="black"/>
<path id="room8" class="room" d="M33.522 277.869L33.522 227.221L4.49257 227.221L4.49257 277.869L33.522 277.869Z" fill="white"/>
<path d="M33.522 277.869L33.522 227.221L4.49257 227.221L4.49257 277.869L33.522 277.869Z" stroke="black"/>
<mask id="mask0_81_643" style="mask-type:luminance" maskUnits="userSpaceOnUse" x="1" y="277" width="33" height="13">
<path d="M33.522 289.317L33.522 277.522L1.03669 277.522L1.03669 289.317L33.522 289.317Z" fill="white"/>
</mask>
<g mask="url(#mask0_81_643)">
<path d="M33.522 289.317L33.522 277.522L1.03669 277.522L1.03669 289.317L33.522 289.317Z" fill="white"/>
<path d="M33.522 283.42L33.522 277.522L20.044 277.522L20.044 283.42L33.522 283.42Z" stroke="black"/>
<path d="M20.0439 283.42L20.0439 277.522L9.33071 277.522L9.33071 283.42L20.0439 283.42Z" stroke="black"/>
</g>
<path d="M33.522 289.317L33.522 277.522L1.03669 277.522L1.03669 289.317L33.522 289.317Z" stroke="black"/>
<path id="room9" class="room" d="M33.522 503.703L33.522 556.085L4.83815 556.085L4.83816 503.703L33.522 503.703Z" fill="white"/>
<path d="M33.522 503.703L33.522 556.085L4.83815 556.085L4.83816 503.703L33.522 503.703Z" stroke="black"/>
<path id="room10" class="room" d="M4.83801 556.085L4.83801 573.777C4.83801 581.44 11.0271 587.653 18.6615 587.653L28.6836 587.653L28.6836 556.085L4.83801 556.085Z" fill="white"/>
<path d="M4.83801 556.085L4.83801 573.777C4.83801 581.44 11.0271 587.653 18.6615 587.653L28.6836 587.653L28.6836 556.085L4.83801 556.085Z" stroke="black"/>
<path id="room11" class="room" d="M33.522 491.561L33.522 503.703L4.83815 503.703L4.83815 491.561L33.522 491.561Z" fill="white"/>
<path d="M33.522 491.561L33.522 503.703L4.83815 503.703L4.83815 491.561L33.522 491.561Z" stroke="black"/>
<path id="room12" class="room" d="M33.522 453.402L33.522 491.561L4.83815 491.561L4.83816 453.402L33.522 453.402Z" fill="white"/>
<path d="M33.522 453.402L33.522 491.561L4.83815 491.561L4.83816 453.402L33.522 453.402Z" stroke="black"/>
<path id="room13" class="room" d="M30.0664 437.444L30.0664 453.402L4.83847 453.402L4.83847 437.444L30.0664 437.444Z" fill="white"/>
<path d="M30.0664 437.444L30.0664 453.402L4.83847 453.402L4.83847 437.444L30.0664 437.444Z" stroke="black"/>
<path id="room14" class="room" d="M30.0664 417.324L30.0664 437.444L4.83847 437.444L4.83848 417.324L30.0664 417.324Z" fill="white"/>
<path d="M30.0664 417.324L30.0664 437.444L4.83847 437.444L4.83848 417.324L30.0664 417.324Z" stroke="black"/>
<path id="room15" class="room" d="M33.522 371.88L33.522 417.324L4.83815 417.324L4.83816 371.88L33.522 371.88Z" fill="white"/>
<path d="M33.522 371.88L33.522 417.324L4.83815 417.324L4.83816 371.88L33.522 371.88Z" stroke="black"/>
<path id="room16" class="room" d="M33.522 327.129L33.522 371.88L4.83815 371.88L4.83816 327.129L33.522 327.129Z" fill="white"/>
<path d="M33.522 327.129L33.522 371.88L4.83815 371.88L4.83816 327.129L33.522 327.129Z" stroke="black"/>
<mask id="mask1_81_643" style="mask-type:luminance" maskUnits="userSpaceOnUse" x="0" y="315" width="34" height="13">
<path d="M33.522 315.681L33.522 327.129L0.345509 327.129L0.345509 315.681L33.522 315.681Z" fill="white"/>
</mask>
<g mask="url(#mask1_81_643)">
<path d="M33.522 315.681L33.522 327.129L0.345509 327.129L0.345509 315.681L33.522 315.681Z" fill="white"/>
<path d="M33.522 321.232L33.522 327.129L20.044 327.129L20.044 321.232L33.522 321.232Z" stroke="black"/>
<path d="M20.0439 321.232L20.0439 327.129L9.33071 327.129L9.33071 321.232L20.0439 321.232Z" stroke="black"/>
</g>
<path d="M33.522 315.681L33.522 327.129L0.345509 327.129L0.345509 315.681L33.522 315.681Z" stroke="black"/>
<mask id="mask2_81_643" style="mask-type:luminance" maskUnits="userSpaceOnUse" x="40" y="26" width="22" height="17">
<path d="M61.1689 42.6689L61.1689 26.0176L40.0881 26.0176L40.0881 42.6689L61.1689 42.6689Z" fill="white"/>
</mask>
<g mask="url(#mask2_81_643)">
<path d="M61.1689 42.6689L61.1689 26.0176L40.0881 26.0176L40.0881 42.6689L61.1689 42.6689Z" fill="white"/>
<path d="M49.4189 42.6689L49.4189 37.1184L40.0881 37.1184L40.0881 42.6689L49.4189 42.6689Z" stroke="black"/>
<path d="M49.4189 37.1186L49.4189 31.5681L40.0881 31.5681L40.0881 37.1186L49.4189 37.1186Z" stroke="black"/>
<path d="M51.8379 26.8848L43.371 26.8848L43.371 31.568" stroke="black"/>
</g>
<path d="M61.1689 42.6689L61.1689 26.0176L40.0881 26.0176L40.0881 42.6689L61.1689 42.6689Z" stroke="black"/>
<mask id="mask3_81_643" style="mask-type:luminance" maskUnits="userSpaceOnUse" x="40" y="146" width="22" height="18">
<path d="M61.1689 146.393L61.1689 163.044L40.0881 163.044L40.0881 146.393L61.1689 146.393Z" fill="white"/>
</mask>
<g mask="url(#mask3_81_643)">
<path d="M61.1689 146.393L61.1689 163.044L40.0881 163.044L40.0881 146.393L61.1689 146.393Z" fill="white"/>
<path d="M49.4189 146.393L49.4189 151.943L40.0881 151.943L40.0881 146.393L49.4189 146.393Z" stroke="black"/>
<path d="M49.4189 151.943L49.4189 157.494L40.0881 157.494L40.0881 151.943L49.4189 151.943Z" stroke="black"/>
<path d="M51.8379 162.177L43.371 162.177L43.371 157.494" stroke="black"/>
</g>
<path d="M61.1689 146.393L61.1689 163.044L40.0881 163.044L40.0881 146.393L61.1689 146.393Z" stroke="black"/>
<path id="room17" class="room" d="M61.1689 66.2583L61.1689 42.6689L40.0881 42.6689L40.0881 66.2583L61.1689 66.2583Z" fill="white"/>
<path d="M61.1689 66.2583L61.1689 42.6689L40.0881 42.6689L40.0881 66.2583L61.1689 66.2583Z" stroke="black"/>
<path id="room18" class="room" d="M61.1689 122.803L61.1689 146.393L40.0881 146.393L40.0881 122.803L61.1689 122.803Z" fill="white"/>
<path d="M61.1689 122.803L61.1689 146.393L40.0881 146.393L40.0881 122.803L61.1689 122.803Z" stroke="black"/>
<path id="room19" class="room" d="M61.1689 122.803L61.1689 66.2583L40.0881 66.2583L40.0881 122.803L61.1689 122.803Z" fill="white"/>
<path d="M61.1689 122.803L61.1689 66.2583L40.0881 66.2583L40.0881 122.803L61.1689 122.803Z" stroke="black"/>
<path id="room20" class="room" d="M140.654 144.658L140.654 183.165L79.1396 183.165L79.1396 144.658L140.654 144.658Z" fill="white"/>
<path d="M140.654 144.658L140.654 183.165L79.1396 183.165L79.1396 144.658L140.654 144.658Z" stroke="black"/>
<mask id="mask4_81_643" style="mask-type:luminance" maskUnits="userSpaceOnUse" x="75" y="3" width="66" height="40">
<path d="M140.654 3.46894L140.654 42.6689L75.3381 42.6689L75.3381 3.46894L140.654 3.46894Z" fill="white"/>
</mask>
<g mask="url(#mask4_81_643)">
<path d="M140.654 3.46894L140.654 42.6689L75.3381 42.6689L75.3381 3.46894L140.654 3.46894Z" fill="white"/>
<path d="M140.481 19.2531L140.481 2.60181L121.82 2.60181L121.82 19.2531L140.481 19.2531Z" stroke="black"/>
<path d="M121.82 19.2531L121.82 2.60181L104.195 2.60181L104.195 19.2531L121.82 19.2531Z" stroke="black"/>
</g>
<path d="M140.481 3.64251L140.481 42.4956L75.5109 42.4956L75.5109 3.64251L140.481 3.64251Z" stroke="black"/>
<path id="room21" class="room" d="M140.654 285.501L140.654 319.844L77.4117 319.844L77.4117 285.501L140.654 285.501Z" fill="white"/>
<path d="M140.654 285.501L140.654 319.844L77.4117 319.844L77.4117 285.501L140.654 285.501Z" stroke="black"/>
<path id="room22" class="room" d="M140.654 419.058L140.654 455.136L77.4117 455.136L77.4117 419.058L140.654 419.058Z" fill="white"/>
<path d="M140.654 419.058L140.654 455.136L77.4117 455.136L77.4117 419.058L140.654 419.058Z" stroke="black"/>
<mask id="mask5_81_643" style="mask-type:luminance" maskUnits="userSpaceOnUse" x="4" y="7" width="26" height="27">
<path d="M29.375 33.9965L29.375 7.97876L4.49265 7.97876L4.49265 33.9965L29.375 33.9965Z" fill="white"/>
</mask>
<g mask="url(#mask5_81_643)">
<path d="M21.0811 25.3239L21.0811 7.97876L13.8237 7.97876L13.8237 25.3239L21.0811 25.3239Z" fill="white"/>
<path d="M21.0811 25.3239L21.0811 7.97876L13.8237 7.97876L13.8237 25.3239L21.0811 25.3239Z" stroke="black"/>
<path d="M20.7354 25.324L20.7354 33.9965M19.5258 25.324L19.5258 33.9965M18.3162 25.324L18.3162 33.9965M17.1067 25.324L17.1067 33.9965M15.7243 25.324L15.7243 33.9965M14.5148 25.324L14.5148 33.9965" stroke="black" stroke-width="0.2"/>
<path d="M21.0809 14.5698L29.375 14.5698M21.0809 15.784L29.375 15.784M21.0809 16.9981L29.375 16.9981M21.0809 18.2123L29.375 18.2123M21.0809 19.5999L29.375 19.5999M21.0809 20.8141L29.375 20.8141M21.0809 21.8548L29.375 21.8548M21.0809 23.0689L29.375 23.0689M21.0809 24.2831L29.375 24.2831" stroke="black" stroke-width="0.2"/>
<path d="M4.83844 14.57L13.8237 14.57M4.83844 15.7842L13.8237 15.7842M4.83844 16.9983L13.8237 16.9983M4.83844 18.2125L13.8237 18.2125M4.83844 19.6001L13.8237 19.6001M4.83844 20.8143L13.8237 20.8143M4.83844 21.855L13.8237 21.855M4.83844 23.0691L13.8237 23.0691M4.83844 24.2833L13.8237 24.2833M4.83844 9.71338L13.8237 9.71338M4.83844 10.9275L13.8237 10.9275M4.83844 12.1417L13.8237 12.1417M4.83844 13.3559L13.8237 13.3559" stroke="black" stroke-width="0.2"/>
</g>
<path d="M29.375 33.9965L29.375 7.97876L8.49265 7.97876C6.28351 7.97876 4.49265 9.76962 4.49265 11.9788L4.49265 33.9965L29.375 33.9965Z" stroke="black"/>
<path id="room23" class="room" d="M58.4043 326.435L58.4043 314.988L40.0881 314.988L40.0881 326.435L58.4043 326.435Z" fill="white"/>
<path d="M58.4043 326.435L58.4043 314.988L40.0881 314.988L40.0881 326.435L58.4043 326.435Z" stroke="black"/>
<path id="room24" class="room" d="M58.4043 340.311L58.4043 326.435L40.0881 326.435L40.0881 340.311L58.4043 340.311Z" fill="white"/>
<path d="M58.4043 340.311L58.4043 326.435L40.0881 326.435L40.0881 340.311L58.4043 340.311Z" stroke="black"/>
<path id="room25" class="room" d="M60.478 354.188L60.478 340.312L40.0883 340.312L40.0883 354.188L60.478 354.188Z" fill="white"/>
<path d="M60.478 354.188L60.478 340.312L40.0883 340.312L40.0883 354.188L60.478 354.188Z" stroke="black"/>
<path id="room26" class="room" d="M60.478 404.141L60.478 354.188L40.0883 354.187L40.0883 404.141L60.478 404.141Z" fill="white"/>
<path d="M60.478 404.141L60.478 354.188L40.0883 354.187L40.0883 404.141L60.478 404.141Z" stroke="black"/>
<path id="room27" class="room" d="M58.4043 418.018L58.4043 404.142L40.0881 404.142L40.0881 418.018L58.4043 418.018Z" fill="white"/>
<path d="M58.4043 418.018L58.4043 404.142L40.0881 404.142L40.0881 418.018L58.4043 418.018Z" stroke="black"/>
<path id="room28" class="room" d="M55.2939 431.547L55.2939 418.018L40.0881 418.018L40.0881 431.547L55.2939 431.547Z" fill="white"/>
<path d="M55.2939 431.547L55.2939 418.018L40.0881 418.018L40.0881 431.547L55.2939 431.547Z" stroke="black"/>
<path id="room29" class="room" d="M59.7866 431.547L59.7866 418.018L55.294 418.018L55.294 431.547L59.7866 431.547Z" fill="white"/>
<path d="M59.7866 431.547L59.7866 418.018L55.294 418.018L55.294 431.547L59.7866 431.547Z" stroke="black"/>
<mask id="mask6_81_643" style="mask-type:luminance" maskUnits="userSpaceOnUse" x="40" y="437" width="16" height="18">
<path d="M55.2939 454.096L55.2939 437.444L40.0881 437.444L40.0881 454.096L55.2939 454.096Z" fill="white"/>
</mask>
<g mask="url(#mask6_81_643)">
<path d="M55.2939 454.096L55.2939 437.444L40.0881 437.444L40.0881 454.096L55.2939 454.096Z" fill="white"/>
<path d="M49.4189 454.095L49.4189 448.545L40.0881 448.545L40.0881 454.095L49.4189 454.095Z" stroke="black"/>
<path d="M49.4189 448.545L49.4189 442.995L40.0881 442.995L40.0881 448.545L49.4189 448.545Z" stroke="black"/>
<path d="M51.8379 438.312L43.371 438.312L43.371 442.995" stroke="black"/>
</g>
<path d="M55.2939 454.096L55.2939 437.444L40.0881 437.444L40.0881 454.096L55.2939 454.096Z" stroke="black"/>
<path id="room30" class="room" d="M59.7866 454.096L59.7866 437.444L55.294 437.444L55.294 454.096L59.7866 454.096Z" fill="white"/>
<path d="M59.7866 454.096L59.7866 437.444L55.294 437.444L55.294 454.096L59.7866 454.096Z" stroke="black"/>
<path id="room31" class="room" d="M58.4043 475.257L58.4043 454.096L40.0881 454.096L40.0881 475.257L58.4043 475.257Z" fill="white"/>
<path d="M58.4043 475.257L58.4043 454.096L40.0881 454.096L40.0881 475.257L58.4043 475.257Z" stroke="black"/>
<path id="room32" class="room" d="M58.4043 490.867L58.4043 475.257L40.0881 475.257L40.0881 490.867L58.4043 490.867Z" fill="white"/>
<path d="M58.4043 490.867L58.4043 475.257L40.0881 475.257L40.0881 490.867L58.4043 490.867Z" stroke="black"/>
<path id="room33" class="room" d="M58.4043 528.68L58.4043 490.867L40.0881 490.867L40.0881 528.68L58.4043 528.68Z" fill="white"/>
<path d="M58.4043 528.68L58.4043 490.867L40.0881 490.867L40.0881 528.68L58.4043 528.68Z" stroke="black"/>
<path id="room34" class="room" d="M60.3052 263.82L60.3052 198.602L40.2611 198.602L40.2611 263.82L60.3052 263.82Z" fill="white"/>
<path d="M60.3052 263.82L60.3052 198.602L40.2611 198.602L40.2611 263.82L60.3052 263.82Z" stroke="black"/>
<path id="room35" class="room" d="M58.2314 264.166L58.2314 278.736L40.2609 278.736L40.2609 264.166L58.2314 264.166Z" fill="white"/>
<path d="M58.2314 264.166L58.2314 278.736L40.2609 278.736L40.2609 264.166L58.2314 264.166Z" stroke="black"/>
<path id="room36" class="room" d="M58.4043 278.91L58.4043 287.582L40.0881 287.582L40.0881 278.91L58.4043 278.91Z" fill="white"/>
<path d="M58.4043 278.91L58.4043 287.582L40.0881 287.582L40.0881 278.91L58.4043 278.91Z" stroke="black"/>
<path id="room37" class="room" d="M60.3052 184.032L60.3052 198.255L40.2611 198.255L40.2611 184.032L60.3052 184.032Z" fill="white"/>
<path d="M60.3052 184.032L60.3052 198.255L40.2611 198.255L40.2611 184.032L60.3052 184.032Z" stroke="black"/>
<path id="room38" class="room" d="M56.5039 169.462L56.5039 183.685L40.2613 183.685L40.2613 169.462L56.5039 169.462Z" fill="white"/>
<path d="M56.5039 169.462L56.5039 183.685L40.2613 183.685L40.2613 169.462L56.5039 169.462Z" stroke="black"/>
<path id="room39" class="room" d="M58.4043 297.642L58.4043 287.582L47.3455 287.582L47.3455 297.642L58.4043 297.642Z" fill="white"/>
<path d="M58.4043 297.642L58.4043 287.582L47.3455 287.582L47.3455 297.642L58.4043 297.642Z" stroke="black"/>
<path id="room40" class="room" d="M47.3457 297.642L47.3457 287.582L40.0884 287.582L40.0884 297.642L47.3457 297.642Z" fill="white"/>
<path d="M47.3457 297.642L47.3457 287.582L40.0884 287.582L40.0884 297.642L47.3457 297.642Z" stroke="black"/>
<mask id="mask7_81_643" style="mask-type:luminance" maskUnits="userSpaceOnUse" x="41" y="550" width="97" height="38">
<path d="M137.544 588L137.544 550.534L41.1248 550.534L41.1248 588L137.544 588Z" fill="white"/>
</mask>
<g mask="url(#mask7_81_643)">
<path d="M137.544 588L137.544 550.534L41.1248 550.534L41.1248 588L137.544 588Z" fill="white"/>
<mask id="mask8_81_643" style="mask-type:luminance" maskUnits="userSpaceOnUse" x="41" y="550" width="21" height="15">
<path d="M61.1689 564.757L61.1689 550.534L41.1248 550.534L41.1248 564.757L61.1689 564.757Z" fill="white"/>
</mask>
<g mask="url(#mask8_81_643)">
<path d="M61.1689 564.757L61.1689 550.534L41.1248 550.534L41.1248 564.757L61.1689 564.757Z" fill="white"/>
<path d="M61.1689 556.085L61.1689 550.534L53.566 550.534L53.566 556.085L61.1689 556.085Z" stroke="black"/>
<path d="M61.1689 561.288L61.1689 556.085L53.566 556.085L53.566 561.288L61.1689 561.288Z" stroke="black"/>
</g>
<path d="M61.1689 564.757L61.1689 550.534L41.1248 550.534L41.1248 564.757L61.1689 564.757Z" stroke="black"/>
<path id="room41" class="room" d="M61.1689 585.919L61.1689 571.696L41.1248 571.696L41.1248 585.919L61.1689 585.919Z" fill="white"/>
<path d="M61.1689 585.919L61.1689 571.696L41.1248 571.696L41.1248 585.919L61.1689 585.919Z" stroke="black"/>
<path id="room42" class="room" d="M137.544 588L137.544 567.186L117.5 567.186L117.5 588L137.544 588Z" fill="white"/>
<path d="M137.544 588L137.544 567.186L117.5 567.186L117.5 588L137.544 588Z" stroke="black"/>
</g>
<path d="M137.371 587.827L137.371 550.708L41.2976 550.708L41.2976 587.827L137.371 587.827Z" stroke="black"/>
<path d="M32.1396 310.478L32.1396 294.52L27.647 294.52L27.647 310.478L32.1396 310.478Z" fill="white"/>
<path d="M32.1396 310.478L32.1396 294.52L27.647 294.52L27.647 310.478L32.1396 310.478Z" stroke="black"/>
<path d="M18.4888 299.377L18.4888 305.621M17.2792 299.377L17.2792 305.621M16.0697 299.377L16.0697 305.621M14.8601 299.377L14.8601 305.621M13.4777 299.377L13.4777 305.621M12.2682 299.377L12.2682 305.621M11.0586 299.377L11.0586 305.621M9.84907 299.377L9.84907 305.621M8.46671 299.377L8.46671 305.621" stroke="black" stroke-width="0.2"/>
<path d="M7.77577 299.377L19.1802 299.377L19.1802 298.163L19.1802 296.688L19.1802 295.734L19.1802 295.214L17.4522 295.214L15.8971 295.214L14.3419 295.214L12.614 295.214L11.2316 295.214L9.8493 295.214L8.81253 295.214L7.77577 295.214L7.77577 295.734L7.77577 296.949L7.77577 298.163L7.77577 299.377Z" fill="white"/>
<path d="M19.1801 289.317L19.1801 295.214M19.1801 295.214L17.4521 295.214M19.1801 295.214L19.1801 295.734M19.1801 299.377L7.77565 299.377M19.1801 299.377L27.647 299.377M19.1801 299.377L19.1801 298.163M7.77565 299.377L7.77565 298.163M7.77565 299.377L0.863891 299.377M19.1801 298.163L27.647 298.163M19.1801 298.163L19.1801 296.688M7.77565 298.163L7.77565 296.949M7.77565 298.163L0.863891 298.163M17.4521 295.214L17.4521 289.317M17.4521 295.214L15.897 295.214M19.1801 295.734L19.1801 296.688M19.1801 295.734L27.647 295.734M15.897 295.214L15.897 289.317M15.897 295.214L14.3418 295.214M14.3418 295.214L14.3418 289.317M14.3418 295.214L12.6139 295.214M12.6139 295.214L12.6139 289.317M12.6139 295.214L11.2315 295.214M11.2315 295.214L11.2315 289.317M11.2315 295.214L9.84918 295.214M9.84918 295.214L9.84918 289.317M9.84918 295.214L8.81242 295.214M8.81242 295.214L7.77565 295.214L7.77565 295.734M8.81242 295.214L8.81242 289.317M7.77565 295.734L0.863891 295.734M7.77565 295.734L7.77565 296.949M7.77565 296.949L0.863891 296.949M19.1801 296.688L27.647 296.688" stroke="black" stroke-width="0.2"/>
<path d="M7.77577 305.621L19.1802 305.621L19.1802 306.835L19.1802 308.31L19.1802 309.264L19.1802 309.784L17.4522 309.784L15.8971 309.784L14.3419 309.784L12.614 309.784L11.2316 309.784L9.8493 309.784L8.81253 309.784L7.77577 309.784L7.77577 309.264L7.77577 308.05L7.77577 306.835L7.77577 305.621Z" fill="white"/>
<path d="M19.1801 315.682L19.1801 309.784M19.1801 309.784L17.4521 309.784M19.1801 309.784L19.1801 309.264M19.1801 305.621L7.77565 305.621M19.1801 305.621L27.647 305.621M19.1801 305.621L19.1801 306.835M7.77565 305.621L7.77565 306.835M7.77565 305.621L0.863891 305.621M19.1801 306.835L27.647 306.835M19.1801 306.835L19.1801 308.31M7.77565 306.835L7.77565 308.05M7.77565 306.835L0.863891 306.835M17.4521 309.784L17.4521 315.682M17.4521 309.784L15.897 309.784M19.1801 309.264L19.1801 308.31M19.1801 309.264L27.647 309.264M15.897 309.784L15.897 315.682M15.897 309.784L14.3418 309.784M14.3418 309.784L14.3418 315.682M14.3418 309.784L12.6139 309.784M12.6139 309.784L12.6139 315.682M12.6139 309.784L11.2315 309.784M11.2315 309.784L11.2315 315.682M11.2315 309.784L9.84918 309.784M9.84918 309.784L9.84918 315.682M9.84918 309.784L8.81242 309.784M8.81242 309.784L7.77565 309.784L7.77565 309.264M8.81242 309.784L8.81242 315.682M7.77565 309.264L0.863891 309.264M7.77565 309.264L7.77565 308.05M7.77565 308.05L0.863891 308.05M19.1801 308.31L27.647 308.31" stroke="black" stroke-width="0.2"/>
</g>
<defs>
<clipPath id="clip0_81_643">
<rect width="588" height="141" fill="white" transform="translate(141) rotate(90)"/>
</clipPath>
</defs>
</svg>
